<?xml version="1.0" encoding="UTF-8"?>
<svg version="1.1" xmlns="http://www.w3.org/2000/svg" width="1000" height="500">
<path d="M0 0 C0.89203125 0.19207031 1.7840625 0.38414063 2.703125 0.58203125 C20.84434112 5.23747578 39.53090642 17.45713659 49.55859375 33.33203125 C56.27853276 45.77029234 59.58666847 58.9992454 61 73 C61.22026855 72.49774902 61.44053711 71.99549805 61.66748047 71.47802734 C75.08892143 41.20560498 95.54808765 18.62951321 126.61376953 5.93164062 C164.82324952 -8.68223114 209.58972637 -7.6457439 247 9 C257.41571445 14.04953063 265.90036371 20.8021863 274 29 C274.99773437 29.98226562 274.99773437 29.98226562 276.015625 30.984375 C281.56808181 36.83696461 285.20446491 43.95114912 289 51 C289.70769531 52.25683594 289.70769531 52.25683594 290.4296875 53.5390625 C293.02640082 58.32059668 293.02640082 58.32059668 292.92285156 60.98535156 C291.54405291 63.99536385 289.49081495 64.92454349 286.671875 66.609375 C285.56070313 67.28226562 284.44953125 67.95515625 283.3046875 68.6484375 C282.1200127 69.34933206 280.9351161 70.04985187 279.75 70.75 C278.62335937 71.42804688 277.49671875 72.10609375 276.3359375 72.8046875 C274.62632398 73.83358534 272.91666013 74.86246355 271.1998291 75.87927246 C268.24478068 77.63102266 265.32789962 79.42077153 262.45117188 81.29882812 C261.87441711 81.6702594 261.29766235 82.04169067 260.70343018 82.42437744 C259.11161855 83.45356054 257.52864616 84.49637814 255.94628906 85.54003906 C252.68224617 87.15745508 250.59367636 87.29824705 247 87 C246.49210938 85.99839844 245.98421875 84.99679688 245.4609375 83.96484375 C241.85164561 76.95996804 238.40208172 70.80723785 233 65 C233 64.34 233 63.68 233 63 C232.41347656 62.72800781 231.82695313 62.45601563 231.22265625 62.17578125 C229.04311667 61.02280864 227.34090291 59.74557711 225.4375 58.1875 C210.18927544 46.65286518 189.36689811 44.49252006 170.8125 46.625 C158.17969866 48.52117595 144.52151282 52.3027509 135.328125 61.7109375 C134 63 134 63 132 63 C131.73574219 63.58007812 131.47148438 64.16015625 131.19921875 64.7578125 C129.95090798 67.09178768 128.52472718 68.86107604 126.8125 70.875 C106.67538628 96.70576749 106.24306149 136.18171448 109.87304688 167.17822266 C110.46037181 171.47741072 111.17466013 175.74038411 112 180 C112.13390137 180.70108887 112.26780273 181.40217773 112.40576172 182.12451172 C116.11953405 200.53131788 125.33447423 216.97105302 140.71484375 227.95703125 C148.75704793 232.95830686 157.5980539 236.6210479 167 238 C167.66644531 238.10957031 168.33289063 238.21914063 169.01953125 238.33203125 C189.01557788 241.11441251 209.18748787 238.43039113 225.8828125 226.63671875 C239.36036743 216.21772333 244.97361323 201.726498 250 186 C255.72268524 185.44028172 259.22346974 187.26361255 264.1015625 189.90234375 C264.86044769 190.29950089 265.61933289 190.69665802 266.4012146 191.10585022 C268.81538937 192.37160479 271.22043197 193.65360319 273.625 194.9375 C276.03807165 196.21499437 278.45291779 197.48894564 280.87020874 198.75843811 C282.37106568 199.54778323 283.86926007 200.34221702 285.3644104 201.14231873 C289.99192693 203.60466176 289.99192693 203.60466176 295 205 C296.92585538 203.97173765 296.92585538 203.97173765 298.8125 202.375 C310.63352058 194.03177968 325.54315737 192.69634376 339.5 190.875 C343.03217447 190.39987451 346.56318049 189.91658573 350.09375 189.4296875 C350.93824707 189.31429626 351.78274414 189.19890503 352.65283203 189.08001709 C360.17164809 188.02888368 367.58107604 186.60856532 375 185 C374.48925552 170.3976621 374.48925552 170.3976621 367.375 158.0625 C359.71734294 153.38282068 351.82538636 152.51375563 343 152.625 C341.61941406 152.60759766 341.61941406 152.60759766 340.2109375 152.58984375 C331.40964312 152.62703232 323.03455175 154.03149318 316.4609375 160.265625 C313.97087448 163.2217426 312.47135018 166.45104886 311 170 C310.7009375 170.68191406 310.401875 171.36382812 310.09375 172.06640625 C309.37925052 173.70380089 308.68711414 175.35092606 308 177 C300.1332874 176.57477229 292.63809855 175.97537032 285 174 C288.61022203 160.45104909 293.81030148 148.58106081 306.203125 141.0546875 C325.89997899 130.35778064 350.93540433 129.06386479 372.40234375 134.9296875 C382.22809037 138.25461926 389.99367784 143.68162531 395 152.9375 C399.49102759 162.29931118 399.29270401 172.6497693 399.30496025 182.79777718 C399.30867603 185.27756582 399.32554511 187.75697263 399.34571838 190.23667908 C399.40061426 197.28067843 399.43161551 204.32473322 399.45629883 211.36889648 C399.47237388 215.69888799 399.50279677 220.02860847 399.54106331 224.35845757 C399.55254184 225.98832715 399.55864212 227.6182456 399.55874443 229.24815559 C399.55999981 243.93142078 401.3300593 256.99017789 406 271 C398.08 271 390.16 271 382 271 C378 261 378 261 377 256 C373.6147581 257.88943734 370.29210384 259.81268505 367.02734375 261.90625 C353.79463085 270.36004513 339.92962942 275.15618278 324 274 C322.95328125 273.93167969 321.9065625 273.86335938 320.828125 273.79296875 C308.95429618 272.59239272 298.81315569 268.1238586 290 260 C286.39913844 255.14499221 283.54373561 249.86619531 282 244 C279.18613902 246.70872771 276.78699031 249.50926123 274.4375 252.625 C258.8970831 272.12220202 236.93548456 282.15938879 213 287 C211.9171875 287.22558594 210.834375 287.45117188 209.71875 287.68359375 C174.01409016 293.73169618 132.86480842 288.19090058 102.8125 266.9375 C97.65036181 262.87978123 92.77908128 258.49892824 88 254 C87.09507812 253.19175781 87.09507812 253.19175781 86.171875 252.3671875 C59.84438197 227.8850795 50.59568662 187.95549174 49.15234375 153.53125 C48.79393841 142.69404433 48.92097373 131.84118876 49 121 C48.48953125 121.78761719 47.9790625 122.57523437 47.453125 123.38671875 C39.65105041 135.07599716 30.84941838 145.14336127 19.75390625 153.83984375 C16.91182934 156.06916082 14.1800964 158.39974201 11.4375 160.75 C-0.00170609 170.28267174 -12.39293993 178.59391857 -24.625 187.0625 C-54.52645509 206.39040018 -54.52645509 206.39040018 -70 237 C-27.76 237 14.48 237 58 237 C58 252.84 58 268.68 58 285 C-4.04 285 -66.08 285 -130 285 C-130 240.07792208 -130 240.07792208 -127 228 C-126.73316406 226.92492187 -126.46632813 225.84984375 -126.19140625 224.7421875 C-122.35192365 211.6708823 -115.15700656 199.98527851 -106 190 C-105.24074219 189.17113281 -104.48148437 188.34226562 -103.69921875 187.48828125 C-97.04835477 180.55440178 -89.64055382 174.77911578 -82 169 C-81.36787598 168.51772949 -80.73575195 168.03545898 -80.08447266 167.53857422 C-71.31219829 160.84620986 -62.38318609 154.40452284 -53.35546875 148.0625 C-42.81678285 140.65758003 -32.33455833 133.22340706 -22.3125 125.125 C-21.67755615 124.61396729 -21.0426123 124.10293457 -20.38842773 123.57641602 C-10.09853353 115.14299535 -2.07290781 105.89754141 2 93 C2.18304688 92.42378906 2.36609375 91.84757812 2.5546875 91.25390625 C4.66315289 80.58211214 3.38893221 69.29373124 -1.75 59.75 C-8.25835868 51.79533939 -15.87622549 47.77835026 -26 46 C-47.11447627 44.46889425 -65.0975421 47.48977583 -81.87890625 61.16015625 C-88.11589519 66.57014113 -92.96399831 72.01264238 -97.26171875 79.09375 C-99 81 -99 81 -101.34375 81.65625 C-105.30029671 80.67875022 -107.28314306 77.99684284 -109.8125 75 C-110.73690838 73.9288531 -111.6623495 72.85859691 -112.58862305 71.7890625 C-113.38437744 70.86867188 -114.18013184 69.94828125 -115 69 C-121.55376435 95.47134985 -127.53436502 122.07554131 -133.57982254 148.66636276 C-135.02488822 155.0201977 -136.47234007 161.37348892 -137.91967773 167.72680664 C-140.21648741 177.80986981 -142.51246813 187.89312121 -144.80761719 197.9765625 C-148.54088048 214.37759516 -152.27591773 230.77822216 -156.01959705 247.17688084 C-157.03535207 251.62638821 -158.04973374 256.07620529 -159.06292725 260.52629662 C-159.81289284 263.8185851 -160.56478042 267.11043391 -161.31640625 270.40234375 C-161.57865997 271.5560144 -161.8409137 272.70968506 -162.1111145 273.89831543 C-162.34845306 274.93597046 -162.58579163 275.97362549 -162.83032227 277.04272461 C-163.03391861 277.9357579 -163.23751495 278.8287912 -163.44728088 279.74888611 C-164 282 -164 282 -165 285 C-186.12 285 -207.24 285 -229 285 C-239.47592487 246.89729981 -249.87203487 208.77489506 -260.17807865 170.62598705 C-260.88592842 168.00583721 -261.59391009 165.38572303 -262.30189514 162.76560974 C-263.21590177 159.38294076 -264.12916866 156.00007323 -265.04197693 152.61708069 C-267.23819448 144.48242814 -269.44865681 136.35203584 -271.6875 128.22900391 C-272.11372645 126.67935725 -272.53991546 125.1297003 -272.96606445 123.58003235 C-273.75984552 120.69390154 -274.55853697 117.80919249 -275.36010742 114.92521667 C-275.70920166 113.65672379 -276.0582959 112.3882309 -276.41796875 111.08129883 C-276.72500732 109.97345535 -277.0320459 108.86561188 -277.34838867 107.72419739 C-278 105 -278 105 -278 102 C-279.32 102 -280.64 102 -282 102 C-282.34597733 103.60346283 -282.34597733 103.60346283 -282.69894409 105.23931885 C-285.22675627 116.84503833 -288.05276248 128.35594565 -291.0078125 139.859375 C-291.49175886 141.75201953 -291.97546088 143.64472655 -292.4589386 145.53749084 C-293.74547551 150.57106523 -295.03552726 155.603732 -296.32648849 160.63617325 C-297.66862735 165.86989604 -299.00805295 171.10431328 -300.34790039 176.33862305 C-302.51696688 184.81071254 -304.68827298 193.28222549 -306.86083984 201.75341797 C-309.09704134 210.47314176 -311.32868468 219.19401823 -313.55641174 227.91591072 C-315.2592564 234.58276325 -316.96432753 241.24904254 -318.67160034 247.9147625 C-319.64972788 251.73384138 -320.62683779 255.55317329 -321.60137939 259.37316895 C-322.5017016 262.90179383 -323.40529343 266.42956427 -324.31157494 269.95666313 C-324.79512474 271.84201579 -325.27521387 273.72825497 -325.75520325 275.61451721 C-326.03893295 276.71601608 -326.32266266 277.81751495 -326.61499023 278.95239258 C-326.86014877 279.91019119 -327.10530731 280.86798981 -327.3578949 281.85481262 C-328 284 -328 284 -329 285 C-330.96369153 285.0940067 -332.93079199 285.11743381 -334.89672852 285.11352539 C-336.15796036 285.11344986 -337.4191922 285.11337433 -338.71864319 285.11329651 C-340.10539794 285.1081891 -341.49215229 285.10297309 -342.87890625 285.09765625 C-344.28995209 285.09579201 -345.70099857 285.09436814 -347.11204529 285.09336853 C-350.83240535 285.08954379 -354.5527266 285.0797139 -358.27307129 285.06866455 C-362.06680781 285.05844948 -365.86055058 285.05387071 -369.65429688 285.04882812 C-377.10288231 285.03809158 -384.55143572 285.0210157 -392 285 C-393.62024062 280.39899165 -394.8303241 275.76256488 -395.90991211 271.01171875 C-396.09174986 270.22247607 -396.27358761 269.43323339 -396.46093559 268.62007427 C-397.06922732 265.97652256 -397.67327972 263.3320207 -398.27734375 260.6875 C-398.71579172 258.77792274 -399.15449396 256.86840383 -399.59342957 254.9589386 C-400.79294036 249.7372547 -401.98871421 244.51472125 -403.183815 239.29202652 C-404.45430727 233.74263353 -405.72812779 228.19400446 -407.00146484 222.64526367 C-410.04844119 209.36406214 -413.08959603 196.08153017 -416.13025665 182.79888153 C-417.59336404 176.40829328 -419.05721546 170.01787547 -420.52099609 163.62744141 C-425.15702754 143.38696238 -429.79092602 123.14599524 -434.42163086 102.90429688 C-434.68896436 101.73574598 -434.95629786 100.56719509 -435.23173237 99.36323357 C-436.55500255 93.57818566 -437.87743922 87.79294904 -439.19831848 82.00735474 C-439.72105743 79.7179515 -440.24381851 77.42855332 -440.76660156 75.13916016 C-441.02585513 74.00380892 -441.2851087 72.86845768 -441.55221844 71.69870186 C-443.12549016 64.81349105 -444.7051681 57.92978678 -446.29046404 51.04733711 C-447.52063093 45.70662827 -448.74812554 40.36530998 -449.97382581 35.02357429 C-450.70743041 31.8273134 -451.44312083 28.63155457 -452.18164444 25.43642616 C-452.99465727 21.91838752 -453.80236146 18.39916936 -454.60888672 14.87963867 C-454.85233196 13.83242582 -455.09577721 12.78521297 -455.34659958 11.7062664 C-455.56583714 10.744853 -455.78507469 9.7834396 -456.01095581 8.79289246 C-456.20306578 7.95902606 -456.39517574 7.12515966 -456.59310722 6.26602459 C-457 4 -457 4 -457 0 C-438.52 0 -420.04 0 -401 0 C-399.62449532 4.12651405 -398.50669543 7.88609453 -397.60520935 12.09552002 C-397.34621353 13.29678024 -397.08721771 14.49804047 -396.82037354 15.73570251 C-396.53960988 17.05458254 -396.25891139 18.37347645 -395.97827148 19.69238281 C-395.67760426 21.09314642 -395.37663693 22.49384563 -395.07539368 23.89448547 C-394.25783354 27.69989889 -393.44448024 31.50620059 -392.63186526 35.31267262 C-391.77103232 39.34144108 -390.90630199 43.36937292 -390.04200745 47.3973999 C-388.39613826 55.07080409 -386.75374389 62.74494769 -385.11259562 70.41936278 C-383.28075064 78.98474758 -381.44516763 87.5493297 -379.6091907 96.11382961 C-377.31263034 106.82690576 -375.01669454 117.54011376 -372.72518921 128.25427246 C-372.05361827 131.39412629 -371.38204247 134.53397907 -370.71044922 137.67382812 C-370.54853678 138.43082976 -370.38662435 139.1878314 -370.21980548 139.96777248 C-368.14487334 149.66751394 -366.06083216 159.36522358 -363.96533203 169.06054688 C-363.52998181 171.07809331 -363.09468155 173.09565053 -362.65943909 175.11322021 C-361.89717531 178.64669036 -361.13122548 182.17933052 -360.36289978 185.71148682 C-360.038727 187.21354728 -359.71470463 188.71564022 -359.39086914 190.21777344 C-358.98222374 192.10082184 -358.98222374 192.10082184 -358.56532288 194.02191162 C-358 197 -358 197 -358 200 C-356.35 200 -354.7 200 -353 200 C-352.88380814 198.88146637 -352.76761627 197.76293274 -352.64790344 196.61050415 C-352.0311923 191.70883789 -350.86871318 187.00955138 -349.63354492 182.23193359 C-349.27129539 180.8065776 -349.27129539 180.8065776 -348.90172768 179.35242653 C-348.0992701 176.19989612 -347.28988532 173.04918771 -346.48046875 169.8984375 C-345.90775923 167.65432225 -345.33547762 165.41009775 -344.76359558 163.16577148 C-343.2283679 157.14606177 -341.68710068 151.12791415 -340.14446259 145.11009979 C-338.54917813 138.88357982 -336.9587116 132.65582934 -335.36767578 126.42822266 C-333.12177322 117.63956408 -330.87373226 108.85145693 -328.62318802 100.06398582 C-325.23348736 86.82849167 -321.8555496 73.59005837 -318.48689461 60.34919357 C-317.09764807 54.8908868 -315.70563882 49.43328433 -314.31318951 43.97579384 C-313.24062718 39.77169353 -312.16938906 35.56726665 -311.10140991 31.36199951 C-310.11506181 27.47878551 -309.12438771 23.59670194 -308.13021278 19.71548462 C-307.77288104 18.31737817 -307.41711564 16.91887027 -307.0630703 15.51992798 C-306.58583146 13.63509237 -306.10241166 11.75182496 -305.61865234 9.86865234 C-305.219048 8.30115738 -305.219048 8.30115738 -304.81137085 6.70199585 C-304 4 -304 4 -302 0 C-286.16 0 -270.32 0 -254 0 C-247.29705571 24.94523945 -240.80880115 49.94374576 -234.33996582 74.95056152 C-231.23493401 86.95351623 -228.12573701 98.95539202 -225.015625 110.95703125 C-224.71046715 112.13467419 -224.4053093 113.31231712 -224.09090424 114.52564621 C-218.84289881 134.77559168 -213.56632012 155.01788378 -208.25 175.25 C-207.91621338 176.5203006 -207.58242676 177.7906012 -207.23852539 179.09939575 C-205.49468938 185.73354733 -203.74896059 192.36719753 -202 199 C-200.68 199.33 -199.36 199.66 -198 200 C-197.82426059 199.10494814 -197.82426059 199.10494814 -197.64497089 198.19181442 C-194.23981476 180.89708543 -190.61433394 163.65387631 -186.90053916 146.42319202 C-186.12493015 142.82275022 -185.35139543 139.22186269 -184.57759094 135.62103271 C-183.2769326 129.56985785 -181.97500696 123.51895692 -180.67211914 117.46826172 C-178.86420936 109.07220968 -177.05853267 100.67567861 -175.2533567 92.27903843 C-172.31417917 78.60800982 -169.37193472 64.93764433 -166.4268322 51.26789093 C-164.93286622 44.33317204 -163.44035166 37.39814572 -161.95049191 30.46254349 C-161.18585729 26.90407454 -160.41995627 23.3458792 -159.65363503 19.78777313 C-159.31936866 18.23437635 -158.98566985 16.6808573 -158.65259361 15.1272049 C-158.21369066 13.08023878 -157.77278245 11.03371549 -157.33129883 8.98730469 C-157.0948616 7.8873114 -156.85842438 6.78731812 -156.61482239 5.6539917 C-156 3 -156 3 -155 0 C-137.18 0 -119.36 0 -101 0 C-99.46239158 3.07521683 -100.63400764 5.34675118 -101.4375 8.625 C-101.72496094 9.81351563 -102.01242187 11.00203125 -102.30859375 12.2265625 C-102.65083984 13.59941406 -102.65083984 13.59941406 -103 15 C-102.16339844 14.49210937 -101.32679688 13.98421875 -100.46484375 13.4609375 C-69.83307716 -4.80939171 -34.55493424 -7.7333641 0 0 Z M370.2109375 204.34765625 C364.44975103 206.28662643 358.5960486 207.35329954 352.625 208.4375 C350.31755826 208.87290337 348.01026757 209.30910792 345.703125 209.74609375 C342.49385363 210.34840293 339.28425396 210.94799423 336.07226562 211.53564453 C333.50335614 212.00864568 330.93913405 212.50186543 328.375 213 C327.63717285 213.12947021 326.8993457 213.25894043 326.13916016 213.39233398 C320.63715293 214.4849897 316.57044288 216.79830954 312 220 C311.21625 220.53625 310.4325 221.0725 309.625 221.625 C306.52906506 226.14982799 305.74281833 231.86559837 306.1875 237.28515625 C307.35483299 242.69449393 309.47148743 247.24803436 314.0859375 250.4453125 C323.76074583 256.07020106 334.7935003 256.34736907 345.65625 254.31640625 C356.12938506 251.36777827 363.67206158 245.84947733 370 237 C373.18127821 231.14837614 375.1384423 225.70453683 375.09765625 219.015625 C375.09443359 218.08105469 375.09121094 217.14648438 375.08789062 216.18359375 C375.07951172 215.21550781 375.07113281 214.24742187 375.0625 213.25 C375.05798828 212.26644531 375.05347656 211.28289062 375.04882812 210.26953125 C375.03706483 207.84629209 375.02062684 205.42317727 375 203 C373.30728584 203 371.79306167 203.77785525 370.2109375 204.34765625 Z " fill="#030303" transform="translate(496,117)"/>
<path d="M0 0 C8.84993196 7.40985427 12.6151378 15.7722291 14.140625 27.0234375 C14.39467132 31.95777089 14.43961881 36.88107368 14.44558525 41.82121468 C14.44930103 44.30100332 14.46617011 46.78041013 14.48634338 49.26011658 C14.54123926 56.30411593 14.57224051 63.34817072 14.59692383 70.39233398 C14.61299888 74.72232549 14.64342177 79.05204597 14.68168831 83.38189507 C14.69316684 85.01176465 14.69926712 86.6416831 14.69936943 88.27159309 C14.70062481 102.95485828 16.4706843 116.01361539 21.140625 130.0234375 C13.220625 130.0234375 5.300625 130.0234375 -2.859375 130.0234375 C-6.859375 120.0234375 -6.859375 120.0234375 -7.859375 115.0234375 C-11.2446169 116.91287484 -14.56727116 118.83612255 -17.83203125 120.9296875 C-31.06474415 129.38348263 -44.92974558 134.17962028 -60.859375 133.0234375 C-61.90609375 132.95511719 -62.9528125 132.88679687 -64.03125 132.81640625 C-75.91169744 131.61516101 -86.03641065 127.14303267 -94.859375 119.0234375 C-97.21630171 115.87573364 -99.02965923 112.49989747 -100.859375 109.0234375 C-101.21515625 108.39695312 -101.5709375 107.77046875 -101.9375 107.125 C-105.83197835 99.01740416 -103.93636993 88.44558872 -101.234375 80.2109375 C-96.36559519 68.55012323 -89.42181919 61.54793831 -77.71289062 56.72827148 C-67.08485576 53.00168504 -56.49966924 51.35222658 -45.359375 49.8984375 C-41.82720053 49.42331201 -38.29619451 48.94002323 -34.765625 48.453125 C-33.92112793 48.33773376 -33.07663086 48.22234253 -32.20654297 48.10345459 C-24.68772691 47.05232118 -17.27829896 45.63200282 -9.859375 44.0234375 C-10.37011948 29.4210996 -10.37011948 29.4210996 -17.484375 17.0859375 C-25.14203206 12.40625818 -33.03398864 11.53719313 -41.859375 11.6484375 C-42.77976562 11.63683594 -43.70015625 11.62523437 -44.6484375 11.61328125 C-53.44973188 11.65046982 -61.82482325 13.05493068 -68.3984375 19.2890625 C-70.88850052 22.2451801 -72.38802482 25.47448636 -73.859375 29.0234375 C-74.1584375 29.70535156 -74.4575 30.38726562 -74.765625 31.08984375 C-75.48012448 32.72723839 -76.17226086 34.37436356 -76.859375 36.0234375 C-84.7260876 35.59820979 -92.22127645 34.99880782 -99.859375 33.0234375 C-96.24915297 19.47448659 -91.04907352 7.60449831 -78.65625 0.078125 C-56.88324465 -11.74629175 -21.18946295 -14.647361 0 0 Z M-14.6484375 63.37109375 C-20.40962397 65.31006393 -26.2633264 66.37673704 -32.234375 67.4609375 C-34.54181674 67.89634087 -36.84910743 68.33254542 -39.15625 68.76953125 C-42.36552137 69.37184043 -45.57512104 69.97143173 -48.78710938 70.55908203 C-51.35601886 71.03208318 -53.92024095 71.52530293 -56.484375 72.0234375 C-57.22220215 72.15290771 -57.9600293 72.28237793 -58.72021484 72.41577148 C-64.22222207 73.5084272 -68.28893212 75.82174704 -72.859375 79.0234375 C-73.643125 79.5596875 -74.426875 80.0959375 -75.234375 80.6484375 C-78.33030994 85.17326549 -79.11655667 90.88903587 -78.671875 96.30859375 C-77.50454201 101.71793143 -75.38788757 106.27147186 -70.7734375 109.46875 C-61.09862917 115.09363856 -50.0658747 115.37080657 -39.203125 113.33984375 C-28.72998994 110.39121577 -21.18731342 104.87291483 -14.859375 96.0234375 C-11.67809679 90.17181364 -9.7209327 84.72797433 -9.76171875 78.0390625 C-9.76494141 77.10449219 -9.76816406 76.16992188 -9.77148438 75.20703125 C-9.77986328 74.23894531 -9.78824219 73.27085937 -9.796875 72.2734375 C-9.80138672 71.28988281 -9.80589844 70.30632812 -9.81054688 69.29296875 C-9.82231017 66.86972959 -9.83874816 64.44661477 -9.859375 62.0234375 C-11.55208916 62.0234375 -13.06631333 62.80129275 -14.6484375 63.37109375 Z " fill="#544CE5" transform="translate(880.859375,257.9765625)"/>
<path d="M0 0 C7.59 0 15.18 0 23 0 C23 44.88 23 89.76 23 136 C15.41 136 7.82 136 0 136 C0 91.12 0 46.24 0 0 Z " fill="#5148E5" transform="translate(912,252)"/>
<path d="M0 0 C7.59 0 15.18 0 23 0 C23 8.91 23 17.82 23 27 C15.41 27 7.82 27 0 27 C0 18.09 0 9.18 0 0 Z " fill="#564DE6" transform="translate(912,201)"/>
</svg>
